<?xml version="1.0" encoding="utf-8"?>
<!-- Generator: Adobe Illustrator 25.0.0, SVG Export Plug-In . SVG Version: 6.00 Build 0)  -->
<svg version="1.1" id="Layer_1" xmlns="http://www.w3.org/2000/svg" xmlns:xlink="http://www.w3.org/1999/xlink" x="0px" y="0px"
	 viewBox="0 0 122 37.4" style="enable-background:new 0 0 122 37.4;" xml:space="preserve">
<style type="text/css">
	.st0{enable-background:new    ;}
	.st1{fill:#AF21ED;}
	.st2{fill:#9248EF;}
	.st3{fill:#7A68F0;}
	.st4{fill:#608AF2;}
	.st5{fill:#4FA1F3;}
	.st6{fill:#3EB8F4;}
	.st7{fill:#FF0008;}
	.st8{fill:#16EDF7;}
</style>
<g id="logo" transform="translate(6969 2703)">
	<g class="st0">
		<path class="st1" d="M-6953.4-2678.5c0-0.9-0.2-1.6-0.6-2.2c-0.4-0.6-1.1-1.1-1.9-1.6c-0.9-0.5-2.2-0.9-4-1.4s-3.1-1-4-1.5
			s-1.5-1.1-2-1.7s-0.6-1.5-0.6-2.4c0-1.5,0.6-2.7,1.9-3.6s2.9-1.4,4.9-1.4c1.3,0,2.5,0.3,3.6,0.8s1.9,1.2,2.4,2.2s0.9,2,0.9,3.2
			h-0.8c0-1.5-0.6-2.8-1.7-3.8s-2.6-1.5-4.4-1.5s-3.3,0.4-4.4,1.2s-1.7,1.8-1.7,3s0.5,2.2,1.5,3s2.6,1.4,4.8,2
			c2.2,0.6,3.9,1.3,4.9,2c1.3,1,2,2.3,2,3.9c0,1-0.3,2-0.9,2.8s-1.4,1.4-2.5,1.8s-2.3,0.7-3.6,0.7c-1.5,0-2.8-0.2-4-0.7
			s-2.1-1.2-2.7-2.1c-0.6-0.9-0.9-2-0.9-3.2h0.8c0,1.7,0.6,3,1.9,3.9s2.9,1.4,4.9,1.4c1.8,0,3.3-0.4,4.5-1.2
			S-6953.4-2677.2-6953.4-2678.5z"/>
	</g>
	<g class="st0">
		<path class="st2" d="M-6947.3-2693.1v4.1h3.5v0.8h-3.5v10.9c0,1.1,0.2,1.9,0.5,2.4c0.4,0.5,0.9,0.8,1.8,0.8c0.4,0,0.9,0,1.5-0.1
			l0.1,0.7c-0.3,0.1-0.8,0.2-1.6,0.2c-1.1,0-1.9-0.3-2.4-0.9c-0.5-0.6-0.7-1.6-0.7-2.9v-11h-2.8v-0.8h2.8v-4.1L-6947.3-2693.1
			L-6947.3-2693.1z"/>
	</g>
	<g class="st0">
		<path class="st3" d="M-6930.2-2675.5c-1,1.5-2.6,2.2-4.9,2.2c-1.6,0-2.9-0.5-3.7-1.4c-0.8-0.9-1.3-2.4-1.3-4.2v-10h1.7v9.8
			c0,2.9,1.2,4.4,3.5,4.4c2.5,0,4-1,4.7-3v-11.1h1.7v15.3h-1.6L-6930.2-2675.5z"/>
	</g>
	<g class="st0">
		<path class="st4" d="M-6924.8-2681.4c0-2.4,0.5-4.3,1.6-5.7s2.5-2.1,4.3-2.1c2.1,0,3.6,0.8,4.7,2.5v-8.6h1.7v21.8h-1.6l-0.1-2
			c-1.1,1.5-2.7,2.3-4.8,2.3c-1.8,0-3.2-0.7-4.3-2.1c-1.1-1.4-1.6-3.3-1.6-5.8L-6924.8-2681.4L-6924.8-2681.4z M-6923.1-2681.1
			c0,2,0.4,3.5,1.2,4.6s1.9,1.7,3.3,1.7c2.1,0,3.6-0.9,4.4-2.8v-7.2c-0.9-2-2.4-3-4.4-3c-1.4,0-2.5,0.6-3.3,1.7
			C-6922.7-2684.9-6923.1-2683.3-6923.1-2681.1z"/>
	</g>
	<g class="st0">
		<path class="st5" d="M-6903.2-2677.4l3.6-11.5h2.8l-6.2,17.7c-1,2.5-2.5,3.8-4.5,3.8h-0.5l-1-0.2v-2.1l0.7,0.1
			c0.9,0,1.6-0.2,2.1-0.5c0.5-0.4,0.9-1,1.2-2l0.6-1.6l-5.5-15.2h2.9L-6903.2-2677.4z"/>
	</g>
	<g class="st0">
		<path class="st6" d="M-6895.2-2681.4c0-1.5,0.3-2.9,0.9-4c0.6-1.2,1.4-2.1,2.5-2.8s2.3-1,3.6-1c2.1,0,3.8,0.7,5.1,2.2
			c1.3,1.4,1.9,3.4,1.9,5.8v0.2c0,1.5-0.3,2.8-0.9,4s-1.4,2.1-2.5,2.8s-2.3,1-3.7,1c-2.1,0-3.8-0.7-5-2.2c-1.3-1.4-1.9-3.4-1.9-5.7
			V-2681.4z M-6892.6-2681.1c0,1.7,0.4,3.1,1.2,4.1s1.8,1.5,3.2,1.5c1.3,0,2.4-0.5,3.2-1.6c0.8-1,1.2-2.5,1.2-4.4
			c0-1.7-0.4-3-1.2-4.1s-1.9-1.6-3.2-1.6c-1.3,0-2.3,0.5-3.1,1.5C-6892.2-2684.5-6892.6-2683-6892.6-2681.1z"/>
	</g>
	<g class="st0">
		<path class="st7" d="M-6878.2-2675.6c0-0.7,0.2-1.2,0.7-1.6c0.4-0.4,1-0.6,1.6-0.6c0.7,0,1.2,0.2,1.7,0.6c0.4,0.4,0.7,0.9,0.7,1.6
			c0,0.6-0.2,1.2-0.7,1.6c-0.4,0.4-1,0.6-1.7,0.6s-1.2-0.2-1.7-0.6C-6877.9-2674.4-6878.2-2675-6878.2-2675.6z"/>
	</g>
	<g class="st0">
		<path class="st8" d="M-6870-2692.9c0-0.6,0.2-1.1,0.6-1.5s1-0.6,1.7-0.6s1.3,0.2,1.7,0.6c0.4,0.4,0.6,0.9,0.6,1.5
			s-0.2,1.1-0.6,1.5s-1,0.6-1.7,0.6s-1.2-0.2-1.7-0.6S-6870-2692.3-6870-2692.9z M-6865.6-2673.6h-4.1v-15.3h4.1V-2673.6z"/>
		<path class="st8" d="M-6862.9-2681.4c0-1.5,0.3-2.9,0.9-4.1c0.6-1.2,1.4-2.1,2.5-2.8s2.4-1,3.8-1c2.1,0,3.8,0.6,5.1,1.9
			s2,3,2.2,5.2v1c0,2.4-0.7,4.2-2,5.7c-1.3,1.4-3.1,2.1-5.3,2.1s-4-0.7-5.3-2.1C-6862.3-2676.9-6863-2678.8-6862.9-2681.4
			L-6862.9-2681.4L-6862.9-2681.4z M-6858.8-2681.1c0,1.5,0.3,2.6,0.8,3.3c0.5,0.8,1.3,1.2,2.4,1.2c1,0,1.8-0.4,2.3-1.1
			c0.6-0.8,0.8-2,0.8-3.7c0-1.4-0.3-2.5-0.8-3.3c-0.6-0.8-1.3-1.2-2.4-1.2c-1,0-1.8,0.4-2.3,1.2
			C-6858.5-2684-6858.8-2682.7-6858.8-2681.1z"/>
	</g>
	<g class="st0">
		<path class="st7" d="M-6869.6-2695.3c0.5-0.5,1.2-0.7,2-0.7s1.5,0.2,2,0.7s0.8,1.1,0.8,1.9c0,0.8-0.3,1.4-0.8,1.9s-1.2,0.7-2,0.7
			s-1.5-0.2-2-0.7s-0.8-1.1-0.8-1.9C-6870.4-2694.2-6870.2-2694.8-6869.6-2695.3z"/>
	</g>
</g>
</svg>
